<?xml version="1.0" standalone="no"?>
<!DOCTYPE svg PUBLIC "-//W3C//DTD SVG 20010904//EN"
 "http://www.w3.org/TR/2001/REC-SVG-20010904/DTD/svg10.dtd">
<svg version="1.0" xmlns="http://www.w3.org/2000/svg"
 width="221.000000pt" height="334.000000pt" viewBox="0 0 221.000000 334.000000"
 preserveAspectRatio="xMidYMid meet">

<g transform="translate(0.000000,334.000000) scale(0.100000,-0.100000)"
fill="#000000" stroke="none">
<path d="M942 3133 c20 -51 12 -199 -17 -328 -40 -173 -37 -230 18 -385 57
-159 68 -215 57 -265 -10 -45 -67 -105 -99 -105 -11 0 -23 -5 -27 -11 -5 -8
11 -10 55 -7 66 5 106 26 129 69 20 36 9 151 -23 244 -19 56 -29 108 -32 175
-5 84 -2 110 27 225 48 192 36 280 -51 380 -37 42 -53 45 -37 8z"/>
<path d="M1281 3125 c-85 -97 -99 -192 -55 -361 42 -157 41 -293 -1 -419 -40
-121 -43 -230 -6 -269 30 -32 82 -49 136 -44 l40 3 -49 25 c-106 53 -113 115
-40 328 62 180 66 241 29 417 -30 138 -37 277 -16 328 15 37 -1 34 -38 -8z"/>
<path d="M722 2864 c15 -35 23 -81 29 -178 9 -145 19 -190 52 -232 31 -41 97
-93 119 -94 4 0 -9 34 -29 75 -33 71 -36 84 -43 208 -4 89 -12 142 -22 162
-20 38 -76 91 -105 99 l-22 7 21 -47z"/>
<path d="M1525 2898 c-33 -18 -76 -61 -93 -93 -10 -20 -18 -73 -22 -162 -7
-124 -10 -137 -44 -209 -29 -61 -32 -75 -19 -70 58 22 118 88 142 156 7 19 16
94 21 165 6 96 13 143 29 178 21 49 19 54 -14 35z"/>
<path d="M1094 2610 c-32 -13 -54 -50 -54 -91 0 -29 7 -43 31 -63 17 -15 43
-26 59 -26 16 0 42 11 59 26 77 65 -2 194 -95 154z"/>
<path d="M1809 2196 c-20 -7 -58 -25 -85 -41 -113 -65 -174 -85 -262 -85 -29
0 -33 -2 -22 -14 23 -29 96 -49 159 -44 48 3 82 15 171 61 64 32 136 61 172
68 61 12 61 12 39 30 -24 20 -83 39 -116 39 -11 -1 -36 -7 -56 -14z"/>
<path d="M290 2179 l-35 -23 70 -16 c39 -9 115 -40 170 -69 138 -72 223 -80
305 -29 l35 21 -90 14 c-55 8 -108 23 -137 38 -27 14 -71 37 -100 52 -73 38
-168 43 -218 12z"/>
<path d="M765 1981 c-77 -20 -157 -79 -176 -129 -25 -65 -3 -131 60 -181 58
-46 120 -65 195 -58 55 4 183 43 174 53 -2 2 -33 -1 -69 -7 -84 -14 -151 -6
-204 25 -76 45 -96 136 -43 193 30 33 61 44 120 45 63 0 142 -43 307 -169 157
-120 213 -147 301 -147 107 0 194 49 231 129 23 49 24 87 4 125 -31 60 -145
120 -228 120 -55 0 -147 -24 -195 -51 -20 -11 -28 -17 -17 -14 43 14 120 25
169 25 61 0 147 -37 170 -72 61 -93 -3 -198 -120 -198 -70 0 -130 33 -305 166
-77 58 -161 115 -186 126 -50 22 -141 32 -188 19z"/>
<path d="M1525 1540 c-15 -28 -14 -30 3 -30 18 0 40 19 56 48 5 8 -1 12 -18
12 -18 0 -30 -9 -41 -30z"/>
<path d="M500 1315 l0 -175 70 0 c68 0 70 1 70 25 0 23 -4 25 -45 25 l-45 0 0
55 0 55 35 0 c31 0 35 3 35 25 0 22 -4 25 -35 25 -35 0 -35 0 -35 45 l0 45 45
0 c41 0 45 2 45 25 0 24 -2 25 -70 25 l-70 0 0 -175z"/>
<path d="M690 1316 c0 -169 1 -176 20 -176 19 0 20 7 20 122 0 67 3 118 6 115
4 -4 19 -57 34 -119 26 -106 29 -113 54 -116 l26 -3 0 175 c0 169 -1 176 -20
176 -19 0 -20 -7 -20 -97 0 -53 -3 -94 -6 -90 -3 3 -16 45 -28 94 -22 86 -23
88 -54 91 l-32 3 0 -175z"/>
<path d="M910 1315 l0 -175 70 0 c68 0 70 1 70 25 0 23 -4 25 -45 25 l-45 0 0
55 0 55 35 0 c31 0 35 3 35 25 0 22 -4 25 -35 25 -35 0 -35 0 -35 45 l0 45 45
0 c41 0 45 2 45 25 0 24 -2 25 -70 25 l-70 0 0 -175z"/>
<path d="M1100 1315 l0 -175 25 0 c24 0 25 2 25 76 0 72 1 75 23 72 20 -3 22
-9 25 -75 3 -72 3 -73 30 -73 l27 0 -5 82 c-3 52 -9 83 -17 85 -10 4 -9 10 2
26 8 12 15 43 15 69 0 67 -23 88 -95 88 l-55 0 0 -175z m95 75 c0 -39 -3 -45
-22 -48 -21 -3 -23 0 -23 48 0 48 2 51 23 48 19 -3 22 -9 22 -48z"/>
<path d="M1332 1467 c-20 -21 -22 -34 -22 -149 0 -112 2 -128 21 -152 27 -34
71 -35 104 -1 22 21 25 33 25 100 l0 75 -35 0 c-31 0 -35 -3 -35 -25 0 -14 5
-25 11 -25 6 0 9 -19 7 -47 -3 -40 -6 -48 -23 -48 -19 0 -20 7 -20 120 0 113
1 120 20 120 14 0 21 -8 23 -27 3 -22 9 -28 28 -28 20 0 24 5 24 30 0 68 -84
104 -128 57z"/>
<path d="M1510 1315 l0 -175 25 0 25 0 0 175 0 175 -25 0 -25 0 0 -175z"/>
<path d="M1655 1478 c-2 -7 -13 -80 -25 -163 -12 -82 -23 -156 -25 -162 -3 -8
5 -13 19 -13 19 0 25 7 30 35 6 30 11 35 35 35 25 0 30 -5 35 -35 6 -29 11
-35 33 -35 22 0 25 3 20 28 -3 15 -16 93 -28 175 l-23 147 -33 0 c-19 0 -35
-6 -38 -12z m50 -150 c6 -66 6 -68 -16 -68 -20 0 -21 3 -15 53 3 28 6 63 6 77
0 48 18 4 25 -62z"/>
<path d="M1583 967 c-49 -177 -66 -265 -61 -327 3 -40 6 -45 29 -48 19 -2 33
5 53 29 30 35 80 128 73 136 -3 2 -22 -22 -43 -53 -75 -111 -74 -85 6 204 22
78 40 148 40 155 0 14 -36 57 -48 57 -4 0 -26 -69 -49 -153z"/>
<path d="M605 1061 c-57 -43 -91 -85 -124 -148 -27 -55 -28 -83 0 -83 33 0 59
19 59 43 0 28 50 114 84 146 14 14 26 22 26 18 0 -3 -20 -70 -45 -148 -65
-206 -73 -250 -53 -293 19 -38 48 -52 75 -37 31 16 135 169 190 278 34 68 55
127 64 174 14 80 10 89 -50 89 -28 0 -32 -3 -26 -17 13 -30 18 -86 8 -80 -6 4
-13 -14 -17 -43 -12 -89 -104 -278 -161 -330 l-28 -25 6 60 c4 33 27 129 52
213 25 83 45 161 45 171 0 17 -34 51 -50 51 -3 0 -28 -18 -55 -39z"/>
<path d="M1114 1048 l-9 -53 -47 -3 c-27 -2 -48 -7 -48 -12 0 -5 -13 -1 -30 8
-40 23 -54 8 -45 -52 4 -25 11 -46 15 -46 5 0 19 12 32 28 18 21 31 27 63 26
28 0 39 -4 37 -14 -2 -7 -14 -59 -28 -114 -13 -56 -24 -125 -24 -154 0 -48 2
-53 27 -63 22 -8 30 -6 51 13 32 30 72 93 72 114 0 11 -11 2 -28 -22 -16 -21
-37 -46 -47 -54 -17 -14 -18 -13 -11 25 4 22 21 93 38 158 l31 117 46 2 c25 1
74 0 107 -1 34 -2 64 2 68 7 9 15 -14 21 -114 28 l-90 7 0 37 c0 35 -23 70
-46 70 -6 0 -15 -24 -20 -52z"/>
<path d="M906 872 c-14 -23 -36 -138 -36 -191 0 -50 3 -62 20 -71 12 -6 29 -8
40 -5 22 7 90 106 90 132 0 13 -5 10 -19 -12 -24 -38 -62 -78 -68 -71 -3 2 2
26 10 53 9 26 19 69 22 94 6 41 4 48 -16 63 -26 18 -36 20 -43 8z"/>
<path d="M1279 864 c-54 -34 -97 -133 -83 -190 9 -34 47 -58 79 -50 15 4 40
26 58 52 l32 46 3 -48 c3 -51 13 -64 48 -64 22 0 58 39 88 97 28 56 17 60 -19
5 -41 -60 -61 -68 -51 -19 19 86 19 97 1 117 -23 25 -42 25 -50 0 -3 -11 -10
-20 -14 -20 -4 0 -13 -12 -20 -27 -22 -48 -73 -105 -84 -94 -15 15 17 90 59
139 36 43 69 53 92 30 9 -9 12 -9 12 3 0 37 -104 52 -151 23z"/>
<path d="M728 523 c233 -2 611 -2 840 0 229 1 39 2 -423 2 -462 0 -650 -1
-417 -2z"/>
<path d="M360 470 c0 -5 7 -10 15 -10 11 0 15 -12 15 -50 0 -27 5 -50 10 -50
6 0 10 23 10 50 0 28 5 50 10 50 6 0 10 5 10 10 0 6 -16 10 -35 10 -19 0 -35
-4 -35 -10z"/>
<path d="M460 420 l0 -60 30 0 c17 0 30 5 30 10 0 6 -9 10 -20 10 -11 0 -20 7
-20 15 0 8 7 15 15 15 8 0 15 5 15 10 0 6 -7 10 -15 10 -8 0 -15 7 -15 15 0 8
9 15 20 15 11 0 20 5 20 10 0 6 -13 10 -30 10 l-30 0 0 -60z"/>
<path d="M540 421 c0 -34 4 -61 10 -61 6 0 10 12 10 26 0 31 23 28 28 -4 7
-46 21 -19 19 36 -2 57 -2 57 -34 60 l-33 3 0 -60z m50 24 c0 -8 -7 -15 -15
-15 -8 0 -15 7 -15 15 0 8 7 15 15 15 8 0 15 -7 15 -15z"/>
<path d="M643 423 c-11 -60 -9 -78 7 -53 8 13 13 13 31 2 11 -7 22 -12 24 -10
1 2 -2 29 -8 61 -8 42 -15 57 -27 57 -12 0 -19 -15 -27 -57z m37 -9 c0 -8 -4
-14 -10 -14 -5 0 -10 9 -10 21 0 11 5 17 10 14 6 -3 10 -13 10 -21z"/>
<path d="M730 421 c0 -34 4 -61 10 -61 6 0 10 10 10 23 0 14 9 26 23 32 14 7
22 19 22 35 0 21 -5 26 -32 28 l-33 3 0 -60z m50 24 c0 -8 -7 -15 -15 -15 -8
0 -15 7 -15 15 0 8 7 15 15 15 8 0 15 -7 15 -15z"/>
<path d="M820 420 c0 -33 4 -60 10 -60 6 0 10 27 10 60 0 33 -4 60 -10 60 -6
0 -10 -27 -10 -60z"/>
<path d="M883 423 c-11 -60 -9 -78 7 -53 8 13 13 13 31 2 11 -7 22 -12 24 -10
1 2 -2 29 -8 61 -8 42 -15 57 -27 57 -12 0 -19 -15 -27 -57z m37 -9 c0 -8 -4
-14 -10 -14 -5 0 -10 9 -10 21 0 11 5 17 10 14 6 -3 10 -13 10 -21z"/>
<path d="M967 474 c-15 -15 -6 -42 18 -58 14 -9 25 -21 25 -26 0 -14 -28 -12
-33 3 -2 6 -8 9 -12 5 -16 -15 5 -39 32 -36 39 4 43 41 9 64 -34 21 -33 38 0
30 19 -5 25 -3 22 6 -5 14 -50 23 -61 12z"/>
<path d="M1100 420 c0 -33 4 -60 10 -60 6 0 10 27 10 60 0 33 -4 60 -10 60 -6
0 -10 -27 -10 -60z"/>
<path d="M1150 420 c0 -64 19 -85 21 -22 l1 37 12 -34 c21 -58 36 -50 36 18 0
62 -19 88 -21 29 l-1 -33 -9 33 c-5 17 -16 32 -24 32 -12 0 -15 -14 -15 -60z"/>
<path d="M1240 470 c0 -5 7 -10 15 -10 11 0 15 -12 15 -50 0 -27 5 -50 10 -50
6 0 10 23 10 50 0 28 5 50 10 50 6 0 10 5 10 10 0 6 -16 10 -35 10 -19 0 -35
-4 -35 -10z"/>
<path d="M1340 420 l0 -60 30 0 c17 0 30 5 30 10 0 6 -9 10 -20 10 -11 0 -20
7 -20 15 0 8 7 15 15 15 8 0 15 5 15 10 0 6 -7 10 -15 10 -8 0 -15 7 -15 15 0
8 9 15 20 15 11 0 20 5 20 10 0 6 -13 10 -30 10 l-30 0 0 -60z"/>
<path d="M1424 466 c-3 -7 -4 -33 -2 -57 3 -41 5 -44 33 -44 27 0 30 4 33 33
2 24 -1 32 -13 32 -11 0 -14 -6 -9 -25 5 -19 2 -25 -10 -25 -12 0 -16 10 -16
40 0 28 4 40 14 40 8 0 16 -6 19 -12 2 -7 8 -10 12 -6 4 4 5 14 2 23 -8 19
-56 20 -63 1z"/>
<path d="M1520 421 c0 -34 4 -61 10 -61 6 0 10 11 10 25 0 14 5 25 10 25 6 0
10 -11 10 -25 0 -14 5 -25 10 -25 6 0 9 24 8 58 -3 54 -4 57 -30 60 -28 3 -28
3 -28 -57z m40 24 c0 -8 -4 -15 -10 -15 -5 0 -10 7 -10 15 0 8 5 15 10 15 6 0
10 -7 10 -15z"/>
<path d="M1613 423 c-11 -60 -9 -78 7 -53 8 13 13 13 31 2 11 -7 22 -12 24
-10 1 2 -2 29 -8 61 -8 42 -15 57 -27 57 -12 0 -19 -15 -27 -57z m37 -9 c0 -8
-4 -14 -10 -14 -5 0 -10 9 -10 21 0 11 5 17 10 14 6 -3 10 -13 10 -21z"/>
<path d="M1710 420 l0 -60 30 0 c17 0 30 5 30 10 0 6 -9 10 -20 10 -17 0 -20
7 -20 50 0 28 -4 50 -10 50 -6 0 -10 -27 -10 -60z"/>
<path d="M1790 420 l0 -60 30 0 c17 0 30 5 30 10 0 6 -9 10 -20 10 -11 0 -20
7 -20 15 0 8 7 15 15 15 8 0 15 5 15 10 0 6 -7 10 -15 10 -8 0 -15 7 -15 15 0
8 9 15 20 15 11 0 20 5 20 10 0 6 -13 10 -30 10 l-30 0 0 -60z"/>
<path d="M1877 474 c-15 -15 -6 -42 18 -58 14 -9 25 -21 25 -26 0 -14 -28 -12
-33 3 -2 6 -8 9 -12 5 -16 -15 5 -39 32 -36 39 4 43 41 9 64 -34 21 -33 38 0
30 19 -5 25 -3 22 6 -5 14 -50 23 -61 12z"/>
</g>
</svg>
